<svg width="40" height="40" viewBox="0 0 40 40" fill="none" xmlns="http://www.w3.org/2000/svg">
<path d="M29.4911 26.1051H26.3882V29.1577H29.4911V26.1051Z" fill="#1A1A1A"/>
<path d="M25.6203 26.1051H22.5173V29.1577H25.6203V26.1051Z" fill="#1A1A1A"/>
<path d="M21.7494 26.1051H18.6465V29.1577H21.7494V26.1051Z" fill="#1A1A1A"/>
<path d="M14.0077 26.1051H10.9048V29.1577H14.0077V26.1051Z" fill="#1A1A1A"/>
<path d="M25.6203 29.9132H22.5173V32.9658H25.6203V29.9132Z" fill="#1A1A1A"/>
<path d="M21.7494 29.9132H18.6465V32.9658H21.7494V29.9132Z" fill="#1A1A1A"/>
<path d="M17.8786 29.9132H14.7756V32.9658H17.8786V29.9132Z" fill="#1A1A1A"/>
<path d="M29.4911 22.2972H26.3882V25.3498H29.4911V22.2972Z" fill="#1A1A1A"/>
<path d="M25.6203 22.2972H22.5173V25.3498H25.6203V22.2972Z" fill="#1A1A1A"/>
<path d="M21.7494 22.2972H18.6465V25.3498H21.7494V22.2972Z" fill="#1A1A1A"/>
<path d="M17.8786 22.2972H14.7756V25.3498H17.8786V22.2972Z" fill="#1A1A1A"/>
<path d="M29.4911 14.6501H26.3882V17.7027H29.4911V14.6501Z" fill="#1A1A1A"/>
<path d="M25.6203 14.6501H22.5173V17.7027H25.6203V14.6501Z" fill="#1A1A1A"/>
<path d="M21.7494 14.6501H18.6465V17.7027H21.7494V14.6501Z" fill="#1A1A1A"/>
<path d="M17.8786 14.6501H14.7756V17.7027H17.8786V14.6501Z" fill="#1A1A1A"/>
<path d="M25.6203 18.4581H22.5173V21.5107H25.6203V18.4581Z" fill="#1A1A1A"/>
<path d="M21.7494 18.4581H18.6465V21.5107H21.7494V18.4581Z" fill="#1A1A1A"/>
<path d="M14.0077 18.4581H10.9048V21.5107H14.0077V18.4581Z" fill="#1A1A1A"/>
<path d="M17.8786 18.4581H14.7756V21.5107H17.8786V18.4581Z" fill="#1A1A1A"/>
<path d="M29.4911 10.8423H26.3882V13.8949H29.4911V10.8423Z" fill="#1A1A1A"/>
<path d="M25.6203 10.8423H22.5173V13.8949H25.6203V10.8423Z" fill="#1A1A1A"/>
<path d="M21.7494 10.8423H18.6465V13.8949H21.7494V10.8423Z" fill="#1A1A1A"/>
<path d="M14.0077 10.8423H10.9048V13.8949H14.0077V10.8423Z" fill="#1A1A1A"/>
<path d="M25.6203 7.0343H22.5173V10.0869H25.6203V7.0343Z" fill="#1A1A1A"/>
<path d="M21.7494 7.0343H18.6465V10.0869H21.7494V7.0343Z" fill="#1A1A1A"/>
<path d="M17.8786 7.0343H14.7756V10.0869H17.8786V7.0343Z" fill="#1A1A1A"/>
<path d="M10.1371 29.9132H7.03418V32.9658H10.1371V29.9132Z" fill="#1A1A1A"/>
<path d="M10.1371 22.2972H7.03418V25.3498H10.1371V22.2972Z" fill="#1A1A1A"/>
<path d="M10.1371 14.6501H7.03418V17.7027H10.1371V14.6501Z" fill="#1A1A1A"/>
<path d="M10.1371 7.0343H7.03418V10.0869H10.1371V7.0343Z" fill="#1A1A1A"/>
</svg>
